<svg xmlns="http://www.w3.org/2000/svg" fill="var(--primaryColor)" viewBox="0 0 64 64"><path fill="#020203" stroke="#000" stroke-miterlimit="10" stroke-width=".5" d="M44 14v26.98c0 1.66-1.42 3-3.16 3H37.1l.57 4.9c.06.55-.35 1.04-.93 1.11-.3.03-.6-.06-.82-.25l-6.73-5.75H23.16c-1.75 0-3.16-1.35-3.16-3v-22.5c0-2.48 2.12-4.49 4.73-4.49H44zM24.46 40.41h5.49c.21.08.39.14.6.22l4.24 3.63-.34-2.9c-.06-.47.3-.89.79-.94.03 0 .07-.01.1-.01h4.2c.5 0 .9-.38.9-.85V18.25h-13.5c-1.86 0-3.38 1.44-3.38 3.21v18.11c0 .46.4.84.9.84z"/></svg>