<svg xmlns="http://www.w3.org/2000/svg" viewBox="0 0 192 64"><path fill="#50B17EFF" stroke="#50B17EFF" stroke-miterlimit="10" stroke-width=".5" d="M30.5 14v27c0 1.7-1.4 3-3.2 3h-3.7l.6 4.9c.1.5-.3 1-.9 1.1-.3 0-.6-.1-.8-.2L15.7 44h-6c-1.8 0-3.2-1.3-3.2-3V18.5c0-2.5 2.1-4.5 4.7-4.5h19.3zM11 40.4h5.5c.2.1.4.1.6.2l4.2 3.6-.3-2.8c-.1-.5.3-.9.8-.9h4.3c.5 0 .9-.4.9-.8V18.3H13.5c-1.9 0-3.4 1.4-3.4 3.2v18.1c0 .4.4.8.9.8z"/><path d="M42.5 21.6h4.1v7.9h8.7v-7.9h4.1V41h-4.1v-8.2h-8.7V41h-4.1V21.6zm19.2 12.1c0-4.7 2.8-7.5 7.1-7.5s7.1 2.8 7.1 7.5-2.8 7.5-7.1 7.5c-4.4 0-7.1-2.8-7.1-7.5zm10.3 0c0-2.8-1.2-4.4-3.2-4.4-1.9 0-3.1 1.6-3.1 4.4 0 2.8 1.2 4.4 3.2 4.4 1.8.1 3.1-1.6 3.1-4.4zm5.4 3.1c0-2.6 2-4.2 5.6-4.4l3.6-.2v-.9c0-1.3-.8-2.1-2.4-2.1-1.5 0-2.3.7-2.5 1.6v.1h-3.6v-.2c.2-2.7 2.5-4.6 6.3-4.6 3.7 0 6.1 1.9 6.1 4.8v9.9h-3.9v-2.1h-.1c-.8 1.5-2.3 2.4-4.2 2.4-2.9.1-4.9-1.8-4.9-4.3zm6.1 1.5c1.8 0 3-1.1 3-2.6v-1l-3 .2c-1.5.1-2.3.7-2.3 1.8.1 1 1 1.6 2.3 1.6zM93 26.5h3.9V29h.1c.4-1.8 1.6-2.8 3.3-2.8.4 0 .8.1 1.1.1v3.5c-.3-.1-.9-.2-1.4-.2-1.9 0-3.1 1.2-3.1 3.2v8.1H93V26.5zm11.2 3h-2v-3h2v-1.2c0-2.8 1.3-4.1 4.7-4.1.7 0 1.5.1 2 .2V24c-.3 0-.6-.1-1-.1-1.3 0-1.9.5-1.9 1.6v1h2.9v3h-2.8V41h-3.9V29.5zm8.7-3h3.9V29h.1c.4-1.8 1.6-2.8 3.3-2.8.4 0 .8.1 1.1.1v3.5c-.3-.1-.9-.2-1.4-.2-1.9 0-3.1 1.2-3.1 3.2v8.1h-3.9V26.5zm9 7.2c0-4.7 2.8-7.5 7.1-7.5s7.1 2.8 7.1 7.5-2.8 7.5-7.1 7.5-7.1-2.8-7.1-7.5zm10.3 0c0-2.8-1.2-4.4-3.2-4.4-1.9 0-3.1 1.6-3.1 4.4 0 2.8 1.2 4.4 3.2 4.4 1.9.1 3.1-1.6 3.1-4.4zm5.4 3v-.1h3.8v.1c.2 1.1 1.1 1.8 2.7 1.8 1.5 0 2.4-.6 2.4-1.5 0-.8-.5-1.2-1.9-1.5l-2.4-.5c-2.8-.6-4.2-2-4.2-4.1 0-2.7 2.4-4.5 6-4.5 3.8 0 6 2 6.1 4.6v.1h-3.6V31c-.1-1-1-1.8-2.4-1.8s-2.2.6-2.2 1.5c0 .7.5 1.2 1.9 1.5l2.4.5c3 .6 4.2 1.8 4.2 3.9 0 2.8-2.6 4.7-6.3 4.7-4-.1-6.2-1.9-6.5-4.6zm15.8.2v-7.4h-2v-3h2V23h4v3.5h2.6v3h-2.6v7c0 1.3.6 1.8 1.8 1.8.3 0 .6 0 .8-.1v2.9c-.4.1-1.1.1-1.9.1-3.2 0-4.7-1.2-4.7-4.3zm8-3.1c0-4.6 2.7-7.5 6.9-7.5s6.9 2.9 6.9 7.2v1.2h-9.9c0 2.3 1.3 3.6 3.3 3.6 1.6 0 2.6-.9 2.9-1.7v-.1h3.6v.1c-.4 2.1-2.4 4.6-6.5 4.6-4.5 0-7.2-2.8-7.2-7.4zm3.9-1.6h6.1c-.2-2-1.4-3-3-3s-2.8 1-3.1 3zm11.9-5.7h3.9V29h.1c.5-.8 1-1.1 1.3-1.1.6-.1.9.2 1.5.1s1-.6 1.3-1c.1.4.3 1.2 0 1.8-.1.3-.4.4-1.1.9-1 .7-1.3.8-1.8 1.2-.4.3-.9.9-1.3 2.1v8h-3.9V26.5z"/></svg>